<svg xmlns="http://www.w3.org/2000/svg" viewBox="0 0 268.92 63.96"><defs><style>.cls-1,.cls-3{fill:#ffffff;}.cls-2{fill:#ffffff;}.cls-3{fill-rule:evenodd;}</style></defs><g id="Layer_2" data-name="Layer 2"><g id="Layer_1-2" data-name="Layer 1"><path class="cls-1" d="M108,35.47a10,10,0,0,1,2.19,6.34,10.22,10.22,0,0,1-1.59,5.68,10.5,10.5,0,0,1-4.58,3.83A16.83,16.83,0,0,1,97,52.7H79.62V12.48H96.21a17.27,17.27,0,0,1,7.06,1.32,10.15,10.15,0,0,1,4.5,3.69,9.65,9.65,0,0,1,1.53,5.36,9.18,9.18,0,0,1-1.88,5.88,10,10,0,0,1-5,3.34A9,9,0,0,1,108,35.47Zm-20.34-6.4h7.37a6.79,6.79,0,0,0,4.44-1.29,4.58,4.58,0,0,0,1.56-3.72,4.63,4.63,0,0,0-1.56-3.74A6.63,6.63,0,0,0,95.06,19H87.69Zm12.7,15.68A4.83,4.83,0,0,0,102,40.83a5,5,0,0,0-1.73-4.06,7,7,0,0,0-4.67-1.47h-8V46.13h8.12A6.9,6.9,0,0,0,100.39,44.75Z"/><path class="cls-1" d="M116.53,28a13.79,13.79,0,0,1,12.65-7.78,13,13,0,0,1,6.25,1.44,12.58,12.58,0,0,1,4.29,3.63V20.78h8.13V52.7h-8.13V48a12,12,0,0,1-4.29,3.72,13.15,13.15,0,0,1-6.31,1.47,13.6,13.6,0,0,1-7.35-2.07,14.54,14.54,0,0,1-5.24-5.85,18.77,18.77,0,0,1-1.93-8.68A18.41,18.41,0,0,1,116.53,28Zm22,3.66a8.14,8.14,0,0,0-3.11-3.23,8.32,8.32,0,0,0-4.21-1.12,8.17,8.17,0,0,0-4.15,1.09,8.26,8.26,0,0,0-3.08,3.2,10,10,0,0,0-1.18,5A10.33,10.33,0,0,0,124,41.67,8.5,8.5,0,0,0,127.13,45a7.89,7.89,0,0,0,4.12,1.15A8.32,8.32,0,0,0,135.46,45a8.2,8.2,0,0,0,3.11-3.23,10.31,10.31,0,0,0,1.15-5A10.31,10.31,0,0,0,138.57,31.7Z"/><path class="cls-1" d="M182.66,23.92q3.51,3.6,3.51,10V52.7H178.1V35.07a8.26,8.26,0,0,0-1.9-5.85,6.76,6.76,0,0,0-5.19-2,6.93,6.93,0,0,0-5.27,2,8.17,8.17,0,0,0-1.93,5.85V52.7h-8.07V20.78h8.07v4a11.13,11.13,0,0,1,4.12-3.25,12.72,12.72,0,0,1,5.5-1.18A12.33,12.33,0,0,1,182.66,23.92Z"/><path class="cls-2" d="M221.84,24.58a9.42,9.42,0,0,0-3.8-3.86,11.51,11.51,0,0,0-5.65-1.33A12.33,12.33,0,0,0,206.05,21a11.13,11.13,0,0,0-4.32,4.61,14.75,14.75,0,0,0-1.56,6.91,14.76,14.76,0,0,0,1.59,7,11.21,11.21,0,0,0,4.41,4.61,13,13,0,0,0,6.57,1.62,11.42,11.42,0,0,0,7.55-2.45,11.74,11.74,0,0,0,3.86-6.83H210.32V30.34H232.1v7a18.85,18.85,0,0,1-3.46,7.78,19.45,19.45,0,0,1-6.83,5.74,20,20,0,0,1-9.36,2.16,21.3,21.3,0,0,1-10.52-2.62,19.05,19.05,0,0,1-7.37-7.29,20.91,20.91,0,0,1-2.68-10.61,21,21,0,0,1,2.68-10.63,19,19,0,0,1,7.37-7.32,22.49,22.49,0,0,1,22.28.69,16.93,16.93,0,0,1,6.91,9.31Z"/><path class="cls-2" d="M244,51.17a14.66,14.66,0,0,1-5.79-5.79,17.36,17.36,0,0,1-2.1-8.64,17,17,0,0,1,2.16-8.65,15.13,15.13,0,0,1,5.9-5.79,18.15,18.15,0,0,1,16.72,0,15.13,15.13,0,0,1,5.9,5.79,17,17,0,0,1,2.16,8.65,16.7,16.7,0,0,1-2.21,8.64,15.31,15.31,0,0,1-6,5.79,17.34,17.34,0,0,1-8.44,2A16.77,16.77,0,0,1,244,51.17Zm12.42-6.05a7.66,7.66,0,0,0,3.08-3.19,10.79,10.79,0,0,0,1.16-5.19q0-4.56-2.4-7a7.82,7.82,0,0,0-5.84-2.45,7.67,7.67,0,0,0-5.8,2.45q-2.33,2.45-2.33,7c0,3,.76,5.37,2.28,7a7.48,7.48,0,0,0,5.73,2.45A8.41,8.41,0,0,0,256.39,45.12Z"/><path class="cls-3" d="M14.45,55.79A32,32,0,0,1,4,28.65h8.05A24,24,0,1,0,18,16a23.56,23.56,0,0,0-4.54,7.4H5a31.65,31.65,0,0,1,7-12.74,32,32,0,1,1,2.44,45.17Z"/><path class="cls-1" d="M24.84,46.66a1.41,1.41,0,0,1-.27-1v-17h7.17V40.53h7.67A4.09,4.09,0,0,0,42,39.82a2.75,2.75,0,0,0,.91-2.26,2.63,2.63,0,0,0-.49-1.67A2.66,2.66,0,0,0,41.1,35a6.88,6.88,0,0,0-2-.24h-1A1.33,1.33,0,0,1,37,34.43a1.4,1.4,0,0,1-.27-1V30A1.34,1.34,0,0,1,37,29a1.3,1.3,0,0,1,1.05-.35h.6a4.73,4.73,0,0,0,2.88-.7,2.35,2.35,0,0,0,.9-2A2.48,2.48,0,0,0,42,24.35a2.36,2.36,0,0,0-1.3-.77,8.5,8.5,0,0,0-2-.21H4.93c-3,.07-5-1.56-4.93-6.43H38.69a15.52,15.52,0,0,1,4.8.68,9.19,9.19,0,0,1,3.3,1.84,7.41,7.41,0,0,1,1.92,2.64,8,8,0,0,1,.61,3.1,8.58,8.58,0,0,1-.46,2.89,6.69,6.69,0,0,1-1,1.89A5.94,5.94,0,0,1,46.68,31a3.92,3.92,0,0,1-.69.41,4.26,4.26,0,0,1,.57.28,7.67,7.67,0,0,1,1.07.75,7.42,7.42,0,0,1,1.18,1.28,6.92,6.92,0,0,1,1,1.9,7.87,7.87,0,0,1,.4,2.59A7.89,7.89,0,0,1,45,46a14.87,14.87,0,0,1-5.64,1H25.9A1.29,1.29,0,0,1,24.84,46.66Z"/></g></g></svg>